<?xml version="1.0" encoding="UTF-8"?>
<!-- Generator: https://ezgif.com/webp-to-svg -->
<svg version="1.1" xmlns="http://www.w3.org/2000/svg" width="364" height="364">
<path d="M0,0 L5,0 L5,1 L9,1 L9,2 L13,2 L13,3 L16,3 L16,4 L19,4 L19,5 L22,5 L22,6 L24,6 L24,7 L27,7 L27,8 L29,8 L29,9 L31,9 L31,10 L34,10 L34,11 L35,11 L35,12 L37,12 L37,13 L39,13 L39,14 L41,14 L41,15 L42,15 L42,16 L44,16 L44,17 L45,17 L45,18 L47,18 L47,19 L48,19 L48,20 L50,20 L50,21 L51,21 L51,22 L52,22 L52,23 L54,23 L54,24 L55,24 L55,25 L57,25 L57,24 L59,24 L59,23 L60,23 L60,22 L62,22 L62,21 L65,21 L65,20 L66,20 L66,19 L69,19 L69,18 L71,18 L71,17 L74,17 L74,16 L77,16 L77,15 L80,15 L80,14 L83,14 L83,13 L89,13 L89,12 L94,12 L94,11 L106,11 L106,10 L112,10 L112,11 L125,11 L125,12 L130,12 L130,13 L135,13 L135,14 L139,14 L139,15 L141,15 L141,16 L145,16 L145,17 L147,17 L147,18 L150,18 L150,19 L152,19 L152,20 L154,20 L154,21 L156,21 L156,22 L158,22 L158,23 L160,23 L160,24 L162,24 L162,25 L163,25 L163,24 L165,24 L165,23 L166,23 L166,22 L167,22 L167,21 L169,21 L169,20 L170,20 L170,19 L171,19 L171,18 L173,18 L173,17 L174,17 L174,16 L176,16 L176,15 L178,15 L178,14 L179,14 L179,13 L181,13 L181,12 L183,12 L183,11 L185,11 L185,10 L187,10 L187,9 L189,9 L189,8 L191,8 L191,7 L194,7 L194,6 L196,6 L196,5 L199,5 L199,4 L202,4 L202,3 L205,3 L205,2 L209,2 L209,1 L213,1 L213,0 L218,0 L218,1 L220,1 L220,2 L221,2 L221,4 L222,4 L222,10 L221,10 L221,12 L220,12 L220,13 L217,13 L217,14 L213,14 L213,15 L209,15 L209,16 L206,16 L206,17 L203,17 L203,18 L200,18 L200,19 L197,19 L197,20 L196,20 L196,21 L193,21 L193,22 L191,22 L191,23 L189,23 L189,24 L187,24 L187,25 L185,25 L185,26 L184,26 L184,27 L182,27 L182,28 L181,28 L181,29 L179,29 L179,30 L178,30 L178,31 L176,31 L176,32 L175,32 L175,33 L174,33 L174,34 L173,34 L173,35 L171,35 L171,36 L170,36 L170,37 L169,37 L169,38 L168,38 L168,39 L167,39 L167,40 L165,40 L165,41 L164,41 L164,42 L163,42 L163,43 L162,43 L162,44 L161,44 L161,45 L160,45 L160,46 L159,46 L159,48 L158,48 L158,49 L157,49 L157,50 L156,50 L156,51 L155,51 L155,52 L154,52 L154,53 L153,53 L153,55 L152,55 L152,56 L151,56 L151,57 L150,57 L150,59 L149,59 L149,60 L148,60 L148,61 L147,61 L147,63 L146,63 L146,64 L145,64 L145,66 L144,66 L144,67 L143,67 L143,69 L142,69 L142,71 L141,71 L141,72 L140,72 L140,74 L139,74 L139,76 L138,76 L138,78 L137,78 L137,80 L136,80 L136,82 L135,82 L135,84 L134,84 L134,86 L133,86 L133,88 L132,88 L132,91 L131,91 L131,93 L130,93 L130,96 L129,96 L129,98 L128,98 L128,100 L127,100 L127,101 L119,101 L119,100 L118,100 L118,98 L117,98 L117,97 L116,97 L116,95 L115,95 L115,94 L114,94 L114,92 L113,92 L113,91 L112,91 L112,89 L111,89 L111,88 L110,88 L110,86 L109,86 L109,87 L108,87 L108,89 L107,89 L107,90 L106,90 L106,91 L105,91 L105,93 L104,93 L104,94 L103,94 L103,96 L102,96 L102,98 L101,98 L101,99 L100,99 L100,100 L99,100 L99,101 L92,101 L92,100 L91,100 L91,99 L90,99 L90,98 L89,98 L89,95 L88,95 L88,92 L87,92 L87,90 L86,90 L86,88 L85,88 L85,85 L84,85 L84,83 L83,83 L83,81 L82,81 L82,79 L81,79 L81,77 L80,77 L80,75 L79,75 L79,73 L78,73 L78,72 L77,72 L77,70 L76,70 L76,68 L75,68 L75,67 L74,67 L74,65 L73,65 L73,64 L72,64 L72,62 L71,62 L71,61 L70,61 L70,59 L69,59 L69,58 L68,58 L68,57 L67,57 L67,55 L66,55 L66,54 L65,54 L65,53 L64,53 L64,52 L63,52 L63,50 L62,50 L62,49 L61,49 L61,48 L60,48 L60,47 L59,47 L59,46 L58,46 L58,45 L57,45 L57,44 L56,44 L56,43 L55,43 L55,42 L54,42 L54,41 L53,41 L53,40 L52,40 L52,39 L51,39 L51,38 L50,38 L50,37 L48,37 L48,36 L47,36 L47,35 L46,35 L46,34 L45,34 L45,33 L43,33 L43,32 L42,32 L42,31 L41,31 L41,30 L39,30 L39,29 L38,29 L38,28 L36,28 L36,27 L35,27 L35,26 L33,26 L33,25 L31,25 L31,24 L29,24 L29,23 L28,23 L28,22 L26,22 L26,21 L23,21 L23,20 L21,20 L21,19 L19,19 L19,18 L16,18 L16,17 L13,17 L13,16 L10,16 L10,15 L6,15 L6,14 L2,14 L2,13 L-1,13 L-1,12 L-2,12 L-2,11 L-3,11 L-3,10 L-4,10 L-4,4 L-3,4 L-3,2 L-1,2 L-1,1 L0,1 Z M96,24 L96,25 L92,25 L92,26 L87,26 L87,27 L83,27 L83,28 L81,28 L81,29 L77,29 L77,30 L74,30 L74,31 L73,31 L73,32 L70,32 L70,33 L68,33 L68,34 L66,34 L66,35 L67,35 L67,36 L68,36 L68,37 L69,37 L69,38 L70,38 L70,40 L71,40 L71,41 L72,41 L72,42 L73,42 L73,43 L74,43 L74,44 L75,44 L75,45 L76,45 L76,47 L77,47 L77,48 L78,48 L78,49 L79,49 L79,51 L80,51 L80,52 L81,52 L81,53 L82,53 L82,55 L83,55 L83,56 L84,56 L84,58 L85,58 L85,60 L86,60 L86,61 L87,61 L87,63 L88,63 L88,64 L89,64 L89,66 L90,66 L90,68 L91,68 L91,70 L92,70 L92,71 L93,71 L93,73 L94,73 L94,75 L95,75 L95,78 L96,78 L96,80 L98,80 L98,78 L99,78 L99,76 L100,76 L100,75 L101,75 L101,73 L102,73 L102,71 L103,71 L103,70 L104,70 L104,68 L105,68 L105,67 L106,67 L106,65 L107,65 L107,63 L108,63 L108,62 L111,62 L111,64 L112,64 L112,66 L113,66 L113,67 L114,67 L114,69 L115,69 L115,70 L116,70 L116,72 L117,72 L117,74 L118,74 L118,75 L119,75 L119,77 L120,77 L120,79 L121,79 L121,80 L122,80 L122,78 L123,78 L123,76 L124,76 L124,74 L125,74 L125,72 L126,72 L126,71 L127,71 L127,69 L128,69 L128,67 L129,67 L129,65 L130,65 L130,63 L131,63 L131,62 L132,62 L132,60 L133,60 L133,59 L134,59 L134,57 L135,57 L135,56 L136,56 L136,54 L137,54 L137,53 L138,53 L138,51 L139,51 L139,50 L140,50 L140,49 L141,49 L141,47 L142,47 L142,46 L143,46 L143,45 L144,45 L144,44 L145,44 L145,42 L146,42 L146,41 L147,41 L147,40 L148,40 L148,39 L149,39 L149,38 L150,38 L150,37 L151,37 L151,36 L152,36 L152,34 L150,34 L150,33 L148,33 L148,32 L145,32 L145,31 L144,31 L144,30 L141,30 L141,29 L138,29 L138,28 L136,28 L136,27 L131,27 L131,26 L127,26 L127,25 L122,25 L122,24 Z " fill="#24326A" transform="translate(70,74)"/>
<path d="M0,0 L3,0 L3,1 L4,1 L4,2 L5,2 L5,3 L6,3 L6,4 L7,4 L7,5 L8,5 L8,6 L9,6 L9,7 L10,7 L10,8 L11,8 L11,9 L12,9 L12,10 L13,10 L13,11 L14,11 L14,13 L15,13 L15,14 L16,14 L16,15 L17,15 L17,16 L18,16 L18,18 L19,18 L19,19 L20,19 L20,21 L21,21 L21,22 L22,22 L22,23 L23,23 L23,25 L24,25 L24,27 L25,27 L25,28 L26,28 L26,30 L27,30 L27,32 L28,32 L28,34 L29,34 L29,36 L30,36 L30,38 L31,38 L31,40 L32,40 L32,42 L33,42 L33,45 L34,45 L34,48 L35,48 L35,50 L36,50 L36,54 L37,54 L37,58 L38,58 L38,61 L39,61 L39,67 L40,67 L40,74 L39,74 L39,76 L38,76 L38,77 L36,77 L36,78 L31,78 L31,77 L29,77 L29,76 L28,76 L28,74 L27,74 L27,69 L26,69 L26,64 L25,64 L25,60 L24,60 L24,57 L23,57 L23,53 L22,53 L22,51 L21,51 L21,48 L20,48 L20,46 L19,46 L19,43 L18,43 L18,42 L17,42 L17,39 L16,39 L16,38 L15,38 L15,36 L14,36 L14,34 L13,34 L13,32 L12,32 L12,31 L11,31 L11,29 L10,29 L10,28 L9,28 L9,27 L8,27 L8,25 L7,25 L7,24 L6,24 L6,23 L5,23 L5,22 L4,22 L4,20 L3,20 L3,19 L2,19 L2,18 L1,18 L1,17 L0,17 L0,16 L-1,16 L-1,15 L-2,15 L-2,14 L-3,14 L-3,13 L-4,13 L-4,12 L-5,12 L-5,11 L-6,11 L-6,10 L-7,10 L-7,9 L-8,9 L-8,7 L-7,7 L-7,6 L-6,6 L-6,5 L-5,5 L-5,4 L-3,4 L-3,3 L-2,3 L-2,2 L-1,2 L-1,1 L0,1 Z " fill="#24326A" transform="translate(246,110)"/>
<path d="M0,0 L2,0 L2,1 L3,1 L3,2 L5,2 L5,3 L6,3 L6,4 L7,4 L7,5 L8,5 L8,6 L9,6 L9,7 L10,7 L10,8 L11,8 L11,10 L9,10 L9,11 L8,11 L8,12 L7,12 L7,13 L6,13 L6,14 L5,14 L5,15 L4,15 L4,16 L3,16 L3,17 L2,17 L2,18 L1,18 L1,19 L0,19 L0,20 L-1,20 L-1,21 L-2,21 L-2,22 L-3,22 L-3,24 L-4,24 L-4,25 L-5,25 L-5,26 L-6,26 L-6,28 L-7,28 L-7,29 L-8,29 L-8,31 L-9,31 L-9,32 L-10,32 L-10,34 L-11,34 L-11,35 L-12,35 L-12,37 L-13,37 L-13,39 L-14,39 L-14,41 L-15,41 L-15,43 L-16,43 L-16,45 L-17,45 L-17,47 L-18,47 L-18,50 L-19,50 L-19,53 L-20,53 L-20,56 L-21,56 L-21,59 L-22,59 L-22,63 L-23,63 L-23,67 L-24,67 L-24,73 L-25,73 L-25,75 L-26,75 L-26,76 L-27,76 L-27,77 L-29,77 L-29,78 L-32,78 L-32,77 L-34,77 L-34,76 L-36,76 L-36,75 L-37,75 L-37,64 L-36,64 L-36,60 L-35,60 L-35,56 L-34,56 L-34,52 L-33,52 L-33,50 L-32,50 L-32,47 L-31,47 L-31,44 L-30,44 L-30,42 L-29,42 L-29,39 L-28,39 L-28,37 L-27,37 L-27,35 L-26,35 L-26,33 L-25,33 L-25,31 L-24,31 L-24,29 L-23,29 L-23,28 L-22,28 L-22,26 L-21,26 L-21,25 L-20,25 L-20,23 L-19,23 L-19,22 L-18,22 L-18,20 L-17,20 L-17,19 L-16,19 L-16,17 L-15,17 L-15,16 L-14,16 L-14,15 L-13,15 L-13,14 L-12,14 L-12,12 L-11,12 L-11,11 L-10,11 L-10,10 L-9,10 L-9,9 L-8,9 L-8,8 L-7,8 L-7,7 L-6,7 L-6,6 L-5,6 L-5,5 L-4,5 L-4,4 L-3,4 L-3,3 L-2,3 L-2,2 L-1,2 L-1,1 L0,1 Z " fill="#24326A" transform="translate(110,110)"/>
<path d="M0,0 L13,0 L13,1 L15,1 L15,2 L17,2 L17,3 L19,3 L19,4 L20,4 L20,5 L21,5 L21,6 L22,6 L22,7 L23,7 L23,8 L24,8 L24,10 L25,10 L25,11 L26,11 L26,13 L27,13 L27,17 L28,17 L28,26 L27,26 L27,30 L26,30 L26,32 L25,32 L25,34 L24,34 L24,35 L23,35 L23,36 L22,36 L22,37 L21,37 L21,38 L20,38 L20,39 L19,39 L19,40 L20,40 L20,41 L21,41 L21,42 L22,42 L22,43 L23,43 L23,44 L24,44 L24,45 L26,45 L26,46 L27,46 L27,47 L29,47 L29,48 L32,48 L32,49 L39,49 L39,50 L40,50 L40,49 L46,49 L46,54 L42,54 L42,55 L36,55 L36,54 L31,54 L31,53 L28,53 L28,52 L26,52 L26,51 L24,51 L24,50 L22,50 L22,49 L21,49 L21,48 L20,48 L20,47 L18,47 L18,45 L17,45 L17,44 L16,44 L16,43 L15,43 L15,42 L12,42 L12,43 L1,43 L1,42 L-2,42 L-2,41 L-4,41 L-4,40 L-6,40 L-6,39 L-7,39 L-7,38 L-8,38 L-8,37 L-9,37 L-9,36 L-10,36 L-10,35 L-11,35 L-11,34 L-12,34 L-12,32 L-13,32 L-13,30 L-14,30 L-14,27 L-15,27 L-15,16 L-14,16 L-14,13 L-13,13 L-13,11 L-12,11 L-12,9 L-11,9 L-11,8 L-10,8 L-10,7 L-9,7 L-9,6 L-8,6 L-8,5 L-7,5 L-7,4 L-6,4 L-6,3 L-4,3 L-4,2 L-2,2 L-2,1 L0,1 Z M2,5 L2,6 L-1,6 L-1,7 L-2,7 L-2,8 L-4,8 L-4,9 L-5,9 L-5,10 L-6,10 L-6,11 L-7,11 L-7,13 L-8,13 L-8,15 L-9,15 L-9,18 L-10,18 L-10,25 L-9,25 L-9,28 L-8,28 L-8,30 L-7,30 L-7,32 L-6,32 L-6,33 L-5,33 L-5,34 L-4,34 L-4,35 L-2,35 L-2,36 L0,36 L0,37 L2,37 L2,38 L11,38 L11,37 L13,37 L13,36 L15,36 L15,35 L17,35 L17,34 L18,34 L18,33 L19,33 L19,32 L20,32 L20,30 L21,30 L21,28 L22,28 L22,24 L23,24 L23,19 L22,19 L22,15 L21,15 L21,13 L20,13 L20,11 L19,11 L19,10 L18,10 L18,9 L17,9 L17,8 L15,8 L15,7 L14,7 L14,6 L11,6 L11,5 Z " fill="#24326A" transform="translate(205,275)"/>
<path d="M0,0 L4,0 L4,3 L5,3 L5,5 L6,5 L6,8 L7,8 L7,10 L8,10 L8,12 L9,12 L9,14 L10,14 L10,11 L11,11 L11,9 L12,9 L12,6 L13,6 L13,4 L14,4 L14,1 L20,1 L20,0 L23,0 L23,1 L22,1 L22,4 L21,4 L21,7 L20,7 L20,9 L19,9 L19,12 L18,12 L18,14 L17,14 L17,17 L16,17 L16,19 L15,19 L15,22 L14,22 L14,24 L13,24 L13,27 L12,27 L12,30 L8,30 L8,27 L7,27 L7,25 L6,25 L6,23 L5,23 L5,21 L4,21 L4,18 L3,18 L3,16 L2,16 L2,15 L1,15 L1,17 L0,17 L0,19 L-1,19 L-1,22 L-2,22 L-2,24 L-3,24 L-3,26 L-4,26 L-4,29 L-5,29 L-5,30 L-8,30 L-8,29 L-9,29 L-9,26 L-10,26 L-10,23 L-11,23 L-11,21 L-12,21 L-12,18 L-13,18 L-13,16 L-14,16 L-14,13 L-15,13 L-15,11 L-16,11 L-16,8 L-17,8 L-17,6 L-18,6 L-18,3 L-19,3 L-19,1 L-11,1 L-11,2 L-10,2 L-10,5 L-9,5 L-9,8 L-8,8 L-8,10 L-7,10 L-7,13 L-5,13 L-5,11 L-4,11 L-4,8 L-3,8 L-3,6 L-2,6 L-2,4 L-1,4 L-1,1 L0,1 Z " fill="#24326A" transform="translate(256,230)"/>
<path d="M0,0 L4,0 L4,1 L5,1 L5,2 L6,2 L6,3 L7,3 L7,4 L8,4 L8,5 L9,5 L9,7 L10,7 L10,8 L11,8 L11,9 L12,9 L12,10 L13,10 L13,11 L14,11 L14,12 L15,12 L15,13 L16,13 L16,14 L17,14 L17,1 L25,1 L25,30 L21,30 L21,29 L20,29 L20,28 L19,28 L19,26 L17,26 L17,24 L16,24 L16,23 L15,23 L15,22 L14,22 L14,21 L13,21 L13,20 L12,20 L12,19 L11,19 L11,18 L10,18 L10,17 L9,17 L9,16 L8,16 L8,29 L0,29 Z " fill="#24326A" transform="translate(112,230)"/>
<path d="M0,0 L9,0 L9,1 L11,1 L11,2 L13,2 L13,3 L14,3 L14,4 L15,4 L15,5 L16,5 L16,6 L17,6 L17,8 L18,8 L18,10 L19,10 L19,20 L18,20 L18,22 L17,22 L17,24 L16,24 L16,25 L15,25 L15,26 L14,26 L14,27 L12,27 L12,28 L11,28 L11,29 L7,29 L7,30 L1,30 L1,29 L-2,29 L-2,28 L-4,28 L-4,27 L-5,27 L-5,26 L-6,26 L-6,25 L-7,25 L-7,24 L-8,24 L-8,23 L-9,23 L-9,21 L-10,21 L-10,18 L-11,18 L-11,11 L-10,11 L-10,9 L-9,9 L-9,7 L-8,7 L-8,5 L-7,5 L-7,4 L-6,4 L-6,3 L-4,3 L-4,2 L-3,2 L-3,1 L0,1 Z M2,7 L2,8 L0,8 L0,9 L-1,9 L-1,10 L-2,10 L-2,11 L-3,11 L-3,18 L-2,18 L-2,20 L-1,20 L-1,21 L0,21 L0,22 L8,22 L8,21 L9,21 L9,20 L10,20 L10,19 L11,19 L11,16 L12,16 L12,13 L11,13 L11,11 L10,11 L10,9 L8,9 L8,8 L6,8 L6,7 Z " fill="#24326A" transform="translate(50,230)"/>
<path d="M0,0 L18,0 L18,1 L21,1 L21,2 L23,2 L23,3 L24,3 L24,4 L25,4 L25,5 L26,5 L26,6 L27,6 L27,8 L28,8 L28,17 L27,17 L27,19 L26,19 L26,20 L25,20 L25,22 L23,22 L23,23 L22,23 L22,24 L18,24 L18,25 L6,25 L6,42 L0,42 Z M6,5 L6,20 L17,20 L17,19 L20,19 L20,18 L21,18 L21,17 L22,17 L22,15 L23,15 L23,10 L22,10 L22,8 L21,8 L21,7 L19,7 L19,6 L17,6 L17,5 Z " fill="#24326A" transform="translate(158,275)"/>
<path d="M0,0 L12,0 L12,1 L14,1 L14,2 L17,2 L17,3 L18,3 L18,4 L19,4 L19,5 L21,5 L21,6 L22,6 L22,8 L23,8 L23,10 L22,10 L22,11 L21,11 L21,12 L19,12 L19,11 L18,11 L18,10 L17,10 L17,9 L16,9 L16,8 L15,8 L15,7 L13,7 L13,6 L11,6 L11,5 L1,5 L1,6 L-1,6 L-1,7 L-3,7 L-3,8 L-4,8 L-4,9 L-5,9 L-5,10 L-6,10 L-6,11 L-7,11 L-7,12 L-8,12 L-8,14 L-9,14 L-9,17 L-10,17 L-10,26 L-9,26 L-9,29 L-8,29 L-8,31 L-7,31 L-7,32 L-6,32 L-6,33 L-5,33 L-5,34 L-4,34 L-4,35 L-3,35 L-3,36 L-1,36 L-1,37 L2,37 L2,38 L10,38 L10,37 L13,37 L13,36 L15,36 L15,35 L16,35 L16,34 L17,34 L17,33 L18,33 L18,32 L19,32 L19,31 L21,31 L21,32 L22,32 L22,33 L23,33 L23,36 L22,36 L22,37 L21,37 L21,38 L20,38 L20,39 L18,39 L18,40 L17,40 L17,41 L15,41 L15,42 L12,42 L12,43 L1,43 L1,42 L-3,42 L-3,41 L-5,41 L-5,40 L-6,40 L-6,39 L-8,39 L-8,38 L-9,38 L-9,37 L-10,37 L-10,36 L-11,36 L-11,34 L-12,34 L-12,33 L-13,33 L-13,31 L-14,31 L-14,28 L-15,28 L-15,15 L-14,15 L-14,12 L-13,12 L-13,10 L-12,10 L-12,9 L-11,9 L-11,8 L-10,8 L-10,6 L-9,6 L-9,5 L-8,5 L-8,4 L-6,4 L-6,3 L-5,3 L-5,2 L-2,2 L-2,1 L0,1 Z " fill="#24326A" transform="translate(128,275)"/>
<path d="M0,0 L4,0 L4,2 L5,2 L5,3 L6,3 L6,4 L7,4 L7,5 L8,5 L8,6 L9,6 L9,7 L10,7 L10,8 L11,8 L11,9 L12,9 L12,10 L13,10 L13,11 L14,11 L14,12 L15,12 L15,13 L16,13 L16,15 L17,15 L17,1 L24,1 L24,30 L21,30 L21,29 L20,29 L20,28 L19,28 L19,27 L18,27 L18,26 L17,26 L17,25 L16,25 L16,24 L15,24 L15,23 L14,23 L14,22 L13,22 L13,21 L12,21 L12,20 L11,20 L11,18 L9,18 L9,16 L8,16 L8,15 L7,15 L7,29 L0,29 Z " fill="#24326A" transform="translate(78,230)"/>
<path d="M0,0 L11,0 L11,1 L12,1 L12,2 L14,2 L14,3 L15,3 L15,4 L16,4 L16,5 L17,5 L17,6 L18,6 L18,9 L17,9 L17,10 L15,10 L15,11 L12,11 L12,10 L11,10 L11,9 L10,9 L10,8 L8,8 L8,7 L3,7 L3,8 L1,8 L1,9 L0,9 L0,10 L-1,10 L-1,12 L-2,12 L-2,17 L-1,17 L-1,19 L0,19 L0,20 L1,20 L1,21 L2,21 L2,22 L9,22 L9,21 L11,21 L11,19 L12,19 L12,18 L15,18 L15,19 L16,19 L16,20 L17,20 L17,21 L18,21 L18,23 L17,23 L17,25 L16,25 L16,26 L15,26 L15,27 L14,27 L14,28 L12,28 L12,29 L8,29 L8,30 L2,30 L2,29 L-1,29 L-1,28 L-3,28 L-3,27 L-4,27 L-4,26 L-5,26 L-5,25 L-6,25 L-6,24 L-7,24 L-7,22 L-8,22 L-8,20 L-9,20 L-9,16 L-10,16 L-10,13 L-9,13 L-9,9 L-8,9 L-8,7 L-7,7 L-7,6 L-6,6 L-6,4 L-5,4 L-5,3 L-3,3 L-3,2 L-2,2 L-2,1 L0,1 Z " fill="#24326A" transform="translate(183,230)"/>
<path d="M0,0 L9,0 L9,1 L12,1 L12,2 L13,2 L13,3 L15,3 L15,5 L16,5 L16,6 L17,6 L17,9 L16,9 L16,10 L14,10 L14,11 L11,11 L11,10 L10,10 L10,9 L9,9 L9,8 L7,8 L7,7 L2,7 L2,8 L0,8 L0,9 L-1,9 L-1,10 L-2,10 L-2,13 L-3,13 L-3,17 L-2,17 L-2,19 L-1,19 L-1,20 L0,20 L0,21 L1,21 L1,22 L8,22 L8,21 L10,21 L10,20 L11,20 L11,18 L14,18 L14,19 L15,19 L15,20 L16,20 L16,21 L17,21 L17,24 L16,24 L16,25 L15,25 L15,26 L14,26 L14,27 L12,27 L12,28 L11,28 L11,29 L7,29 L7,30 L2,30 L2,29 L-2,29 L-2,28 L-3,28 L-3,27 L-5,27 L-5,26 L-6,26 L-6,25 L-7,25 L-7,24 L-8,24 L-8,22 L-9,22 L-9,20 L-10,20 L-10,10 L-9,10 L-9,8 L-8,8 L-8,6 L-7,6 L-7,5 L-6,5 L-6,4 L-5,4 L-5,3 L-4,3 L-4,2 L-2,2 L-2,1 L0,1 Z " fill="#24326A" transform="translate(15,230)"/>
<path d="M0,0 L20,0 L20,6 L7,6 L7,10 L16,10 L16,17 L8,17 L8,16 L7,16 L7,21 L20,21 L20,28 L0,28 Z " fill="#24326A" transform="translate(332,231)"/>
<path d="M0,0 L19,0 L19,6 L7,6 L7,10 L16,10 L16,17 L7,17 L7,21 L20,21 L20,28 L0,28 Z " fill="#24326A" transform="translate(147,231)"/>
<path d="M0,0 L6,0 L6,1 L9,1 L9,2 L10,2 L10,3 L11,3 L11,4 L12,4 L12,5 L13,5 L13,7 L12,7 L12,8 L11,8 L11,9 L10,9 L10,10 L7,10 L7,9 L6,9 L6,8 L5,8 L5,7 L2,7 L2,8 L1,8 L1,10 L3,10 L3,11 L6,11 L6,12 L8,12 L8,13 L10,13 L10,14 L11,14 L11,15 L12,15 L12,17 L13,17 L13,25 L12,25 L12,26 L11,26 L11,27 L10,27 L10,28 L8,28 L8,29 L5,29 L5,30 L2,30 L2,29 L-2,29 L-2,28 L-4,28 L-4,27 L-5,27 L-5,26 L-6,26 L-6,25 L-7,25 L-7,24 L-8,24 L-8,22 L-7,22 L-7,21 L-6,21 L-6,20 L-5,20 L-5,19 L-2,19 L-2,20 L-1,20 L-1,21 L0,21 L0,22 L2,22 L2,23 L4,23 L4,22 L6,22 L6,20 L5,20 L5,19 L3,19 L3,18 L1,18 L1,17 L-1,17 L-1,16 L-3,16 L-3,15 L-4,15 L-4,14 L-5,14 L-5,13 L-6,13 L-6,10 L-7,10 L-7,7 L-6,7 L-6,5 L-5,5 L-5,3 L-4,3 L-4,2 L-2,2 L-2,1 L0,1 Z " fill="#24326A" transform="translate(310,230)"/>
<path d="M0,0 L25,0 L25,6 L16,6 L16,28 L9,28 L9,6 L0,6 Z " fill="#24326A" transform="translate(207,231)"/>
<path d="M0,0 L8,0 L8,28 L0,28 Z " fill="#24326A" transform="translate(286,231)"/>
<path d="M0,0 L7,0 L7,1 L8,1 L8,2 L9,2 L9,0 L12,0 L12,7 L9,7 L9,6 L8,6 L8,7 L5,7 L5,3 L4,3 L4,7 L2,7 L2,3 L0,3 Z " fill="#24326A" transform="translate(293,76)"/>
<path d="M0,0 L5,0 L5,1 L6,1 L6,6 L5,6 L5,7 L0,7 L0,5 L-1,5 L-1,2 L0,2 Z " fill="#24326A" transform="translate(354,227)"/>
</svg>
